SplineFontDB: 3.0
FontName: Valley
FullName: Valley
FamilyName: Valley
Weight: Regular
Copyright: Created by trashman with FontForge 2.0 (http://fontforge.sf.net)
UComments: "2010-10-4: Created." 
Version: 001.000
ItalicAngle: 0
UnderlinePosition: -100
UnderlineWidth: 50
Ascent: 730
Descent: 270
LayerCount: 3
Layer: 0 0 "Back"  1
Layer: 1 0 "Fore"  0
Layer: 2 0 "backup"  0
NeedsXUIDChange: 1
XUID: [1021 658 797806517 11561335]
OS2Version: 0
OS2_WeightWidthSlopeOnly: 0
OS2_UseTypoMetrics: 1
CreationTime: 1286180940
ModificationTime: 1286953943
OS2TypoAscent: 0
OS2TypoAOffset: 1
OS2TypoDescent: 0
OS2TypoDOffset: 1
OS2TypoLinegap: 0
OS2WinAscent: 0
OS2WinAOffset: 1
OS2WinDescent: 0
OS2WinDOffset: 1
HheadAscent: 0
HheadAOffset: 1
HheadDescent: 0
HheadDOffset: 1
OS2Vendor: 'PfEd'
MarkAttachClasses: 1
DEI: 91125
Encoding: UnicodeBmp
UnicodeInterp: none
NameList: Adobe Glyph List
DisplaySize: -48
AntiAlias: 1
FitToEm: 1
WinInfo: 88 11 5
BeginPrivate: 6
BlueValues 15 [-23 6 438 470]
BlueScale 9 0.0309375
StdHW 4 [37]
StemSnapH 35 [23 27 31 33 37 42 46 54 79 88 118]
StdVW 4 [88]
StemSnapV 14 [80 88 92 103]
EndPrivate
BeginChars: 65536 63

StartChar: a
Encoding: 97 97 0
Width: 504
VWidth: 0
Flags: HW
HStem: -12 42<163.309 265.027 431.624 485.909> 222 28<271.168 334> 236 33<181.032 324.993> 434 34<173.281 293.055>
VStem: 24 107<64.0932 190.614> 60 93<336.531 407.63> 334 92<83.229 227.447 250 392.627>
LayerCount: 3
Fore
SplineSet
334 222 m 1xda
 307 229 279 236 244 236 c 0xba
 173 236 131 190 131 126 c 0
 131 79 166 30 213 30 c 0
 281 30 334 92 334 146 c 2
 334 222 l 1xda
426 262 m 2
 426 82 l 2
 426 47 441 28 466 24 c 0
 485 21 485 24 486 8 c 0
 486 5 487 1 487 -1 c 0
 487 -10 476 -12 465 -12 c 0
 449 -12 414 -8 376 2 c 0
 344 10 341 34 336 67 c 1
 336 67 282 -12 178 -12 c 0
 100 -12 24 44 24 120 c 0
 24 215 121 269 216 269 c 0xba
 267 269 335 250 335 250 c 1
 335 306 l 2
 335 396 292 434 242 434 c 0
 238 434 223 434 207 431 c 0
 173 426 160 415 153 384 c 0
 145 350 133 324 98 324 c 0
 77 324 60 336 60 362 c 0xd6
 60 421 164 468 243 468 c 0
 273 468 300 464 323 457 c 0
 396 436 426 387 426 262 c 2
EndSplineSet
EndChar

StartChar: b
Encoding: 98 98 1
Width: 568
VWidth: 0
Flags: W
HStem: -18 35<258.664 380.119> -10 21G<113.5 170.5> 432 32<282.268 381.059> 669 42<17.0196 112.794>
VStem: 104 73<-10 49.8856> 113 97<532.5 669.987> 440 103<112.838 348.659>
LayerCount: 3
Fore
SplineSet
165 -10 m 2x7a
 121 -10 l 2
 106 -10 104 -10 104 0 c 0x7a
 104 87 113 412 113 638 c 0
 113 652 113 670 97 670 c 0
 68 670 52 669 24 669 c 0
 20 669 17 680 17 689 c 0
 17 701 22 711 31 711 c 0
 44 711 128 705 169 705 c 2
 201 705 l 2
 209 705 211 704 211 699 c 0
 211 696 210 691 210 685 c 2
 196 380 l 1
 196 380 256 464 350 464 c 0
 459 464 543 375 543 242 c 0
 543 62 448 -18 325 -18 c 0xb6
 240 -18 206 52 197 52 c 0
 185 52 180 26 177 8 c 0
 175 -9 176 -10 165 -10 c 2x7a
196 216 m 0
 196 170 200 130 211 98 c 0
 229 48 264 17 318 17 c 0xb2
 427 17 440 121 440 238 c 0
 440 326 426 432 324 432 c 0
 265 432 229 389 211 334 c 0
 199 297 196 255 196 216 c 0
EndSplineSet
EndChar

StartChar: c
Encoding: 99 99 2
Width: 468
VWidth: 0
Flags: W
HStem: -18 36<208.687 338.757> 432 35<200.608 313.052>
VStem: 26 104<117.403 322.587>
LayerCount: 3
Fore
SplineSet
413 375 m 0
 413 352 403 331 377 331 c 0
 329 331 333 408 305 423 c 0
 292 430 281 432 265 432 c 0
 163 432 130 338 130 242 c 0
 130 132 162 18 274 18 c 0
 323 18 368 47 394 93 c 0
 398 99 405 131 417 134 c 0
 425 136 439 128 439 119 c 0
 439 110 435 99 430 90 c 0
 390 22 342 -18 258 -18 c 0
 124 -18 26 87 26 221 c 0
 26 366 140 467 262 467 c 0
 317 467 413 438 413 375 c 0
EndSplineSet
EndChar

StartChar: d
Encoding: 100 100 3
Width: 578
VWidth: 0
Flags: W
HStem: -22 37<186.868 296.39 466.792 554.614> 421 35<190.998 299.691> 663 30<295.745 366> 665 37<267.007 332.394>
VStem: 27 105<106.005 320.758> 372 94<364.109 660.122> 376 8<-4 69> 380 80<17.6841 69 108.848 334.471 364 607.369>
LayerCount: 3
Fore
SplineSet
384 69 m 1xea
 384 68 316 -22 225 -22 c 0
 112 -22 27 89 27 204 c 0
 27 331 95 456 236 456 c 0
 324 456 379 364 379 364 c 1
 379 364 374 514 372 612 c 0
 371 642 370 661 333 663 c 0xec
 320 664 311 664 295 665 c 0
 277 666 267 665 267 684 c 0
 267 697 272 702 282 702 c 0xdc
 291 702 294 701 302 700 c 0
 335 695 336 695 366 693 c 0
 371 693 427 691 443 691 c 0
 462 691 466 691 466 670 c 0xec
 466 633 460 367 460 187 c 0xe9
 460 144 460 108 461 84 c 0
 463 33 461 14 514 11 c 0
 545 9 555 11 555 -9 c 0
 555 -24 544 -26 529 -26 c 0
 518 -26 507 -25 498 -24 c 0
 458 -18 420 -15 397 -15 c 0
 380 -15 376 -12 376 -4 c 0
 376 -1 382 48 384 69 c 1xea
132 212 m 0
 132 123 147 15 242 15 c 0
 330 15 380 118 380 214 c 0xc9
 380 311 345 421 243 421 c 0
 151 421 132 304 132 212 c 0
EndSplineSet
EndChar

StartChar: e
Encoding: 101 101 4
Width: 464
VWidth: 0
Flags: W
HStem: -23 36<202.047 332.492> 223 30<127.078 357.998> 426 31<192.875 285.808>
VStem: 24.9342 102.066<116.82 323.794> 358 83<231.5 341.778>
LayerCount: 3
Fore
SplineSet
256 -23 m 0
 127.598436431 -23 24.9341885063 81.1269322948 24.9341885063 221.088104309 c 0
 24.9341885063 356.996992862 123.67077338 457 236 457 c 0
 360 457 441 367 441 236 c 0
 441 227 440 223 425 223 c 2
 141 223 l 2
 129 223 127 224 127 214 c 0
 127 173 130 13 270 13 c 0
 338 13 385 63 408 90 c 0
 419 103 421 106 430 100 c 0
 435 97 437 93 437 90 c 0
 437 85 434 80 429 73 c 0
 408 40 340 -23 256 -23 c 0
138 253 m 2
 347 253 l 2
 355 253 358 256 358 265 c 0
 358 319 321 426 238 426 c 0
 161 426 129 321 126 274 c 0
 126 269 124 265 124 262 c 0
 124 256 127 253 138 253 c 2
EndSplineSet
EndChar

StartChar: f
Encoding: 102 102 6
Width: 365
VWidth: 0
Flags: W
HStem: -8 37<17.0404 122.631 228.815 324.889> 3 31<43.8765 124.72 226.792 302.031> 404 37<25.0051 128 219 348.997> 687 36<235.526 296.584>
VStem: 128 91<36.8651 405 440 636.739> 301 83<596.545 684.724>
LayerCount: 3
Fore
SplineSet
301 647 m 2x7c
 301 670 292 687 265 687 c 0
 246 687 235 673 228 653 c 0
 219 626 219 569 219 463 c 2
 219 440 l 1
 322 440 l 2
 345 440 349 438 349 422 c 0
 349 407 346 404 320 404 c 0
 292 404 277 404 219 405 c 1
 219 80 l 2
 219 27 259 30 303 29 c 0
 317 29 325 26 325 14 c 0
 325 -4 319 -8 305 -8 c 0xbc
 241 -8 219 3 174 3 c 0
 124 3 61 -6 43 -6 c 0
 23 -6 17 -3 17 12 c 0
 17 24 18 30 35 31 c 2
 101 34 l 2
 123 35 128 46 128 80 c 2
 128 405 l 1
 100 405 68 404 42 404 c 0
 32 404 25 407 25 423 c 0
 25 439 31 441 41 441 c 0
 67 441 96 440 128 440 c 9
 128 543 l 2
 128 635 186 723 275 723 c 0
 325 723 384 687 384 638 c 0
 384 609 363 589 337 589 c 0
 317 589 301 606 301 627 c 2
 301 647 l 2x7c
EndSplineSet
EndChar

StartChar: g
Encoding: 103 103 7
Width: 525
VWidth: 0
Flags: W
HStem: -238 27<146.317 312.641> -11 79<133.669 390.127> 131 23<187.002 272.797> 409 39<409.304 479.5> 432 27<187.44 276.631>
VStem: 17 63<-167.114 -64.3101> 20 33<56 141.588> 59 85<222.663 370.167> 324 84<209.989 379.902> 431 47<-144.55 -44.709> 465 59<361.66 408.439>
LayerCount: 3
Fore
SplineSet
20 82 m 0xf280
 20 133 46 159 69 172 c 0
 89 183 108 186 108 186 c 1
 108 186 59 232 59 298 c 0
 59 383 140 459 251 459 c 0xeb80
 302 459 345 422 365 402 c 0
 374 393 372 395 383 405 c 0
 397 418 422 448 462 448 c 0
 497 448 524 429 524 399 c 0
 524 376 508 359 491 359 c 0
 481 359 471 365 465 380 c 0
 460 394 455 409 441 409 c 0
 425 409 410 396 398 384 c 0
 390 376 388 373 388 370 c 0
 388 368 401 342 404 326 c 0
 407 313 408 298 408 286 c 0
 408 204 338 131 242 131 c 0
 184 131 144 154 124 170 c 1
 124 170 107 168 91 161 c 0
 73 153 53 137 53 116 c 0xf3a0
 53 77 93 73 130 70 c 0
 157 68 187 68 217 68 c 2
 224 68 l 2
 254 68 362 67 411 45 c 0
 450 28 478 -9 478 -64 c 0
 478 -201 340 -238 226 -238 c 0
 115 -238 17 -198 17 -114 c 0xf4c0
 17 -71 65 -36 98 -21 c 0
 107 -17 111 -15 111 -13 c 0
 111 -11 104 -9 93 -5 c 0
 64 5 20 30 20 82 c 0xf280
137 -30 m 0
 101 -57 80 -72 80 -112 c 0
 80 -178 151 -211 212 -211 c 0
 302 -211 431 -178 431 -93 c 0xe4c0
 431 -15 321 -11 244 -11 c 2
 202 -11 l 2
 179 -11 160 -13 137 -30 c 0
234 432 m 0xe980
 162 432 144 362 144 296 c 0
 144 224 158 154 228 154 c 0
 305 154 324 226 324 298 c 0
 324 358 302 432 234 432 c 0xe980
EndSplineSet
EndChar

StartChar: h
Encoding: 104 104 8
Width: 624
VWidth: 0
Flags: W
HStem: -6 35<17.351 105.391 206.762 278.837 347.006 432.901 529.588 609.947> 421 39<322.602 419.463> 666 40<17.0581 109.92> 666 32<31.3782 108.625>
VStem: 112 90<33.1514 321.852 338 591.162> 116 94<255.094 692> 436 90<31.9963 407.484>
LayerCount: 3
Fore
SplineSet
596 28 m 2xd6
 603 28 610 27 610 20 c 2
 610 9 l 2
 610 -4 602 -5 584 -5 c 0
 549 -5 521 4 480 4 c 0
 432 4 399 -6 356 -6 c 0
 349 -6 347 -3 347 12 c 0
 347 29 355 29 376 29 c 0
 410 29 436 29 436 63 c 2
 436 344 l 2
 436 389 419 421 376 421 c 0
 342 421 301 396 277 378 c 0
 231 344 202 298 202 255 c 2
 202 64 l 2
 202 34 228 28 249 26 c 0
 266 24 279 30 279 8 c 0
 279 -4 273 -6 255 -6 c 0
 223 -6 154 3 152 3 c 0
 114 3 83 -3 50 -3 c 0
 43 -3 36 -3 28 -2 c 0
 22 -1 17 7 17 15 c 0
 17 22 19 29 26 29 c 0
 34 29 42 29 50 29 c 0
 86 29 111 30 112 70 c 0xda
 115 285 116 406 116 618 c 0
 116 640 107 666 84 666 c 2
 28 666 l 2
 20 666 17 675 17 684 c 0
 17 695 22 706 30 706 c 0xe6
 59 706 114 698 138 698 c 0
 157 698 172 700 190 700 c 2
 203 700 l 2
 206 700 210 694 210 690 c 0
 207 551 198 338 198 338 c 1
 198 338 275 460 416 460 c 0
 473 460 526 435 526 366 c 2
 526 60 l 2
 526 30 558 28 581 28 c 2
 596 28 l 2xd6
EndSplineSet
EndChar

StartChar: i
Encoding: 105 105 9
Width: 300
VWidth: 0
Flags: W
HStem: -6 31<17.0559 105.643 215.376 288.934> 411 34<12.0015 111.625> 411 27<21.3963 109.381> 570 118<110.339 201.661>
VStem: 97 118<583.339 674.661> 120 91<34.7518 407.926>
LayerCount: 3
Fore
SplineSet
97 629 m 0x98
 97 662 123 688 156 688 c 0
 189 688 215 662 215 629 c 0
 215 596 189 570 156 570 c 0
 123 570 97 596 97 629 c 0x98
208 62 m 2
 208 34 229 28 249 26 c 0
 266 24 289 30 289 8 c 0
 289 -4 283 -6 265 -6 c 0
 233 -6 166 4 164 4 c 0
 123 4 80 -6 41 -6 c 2
 28 -6 l 2
 21 -6 17 3 17 11 c 0
 17 18 20 25 28 25 c 0
 80 27 118 27 118 70 c 0
 120 282 120 150 120 362 c 0
 120 384 109 411 86 411 c 2
 22 411 l 2
 14 411 12 418 12 427 c 0
 12 438 12 445 20 445 c 0xd4
 49 445 129 438 153 438 c 0
 172 438 172 439 190 439 c 2
 203 439 l 2
 206 439 211 433 211 429 c 0xb4
 208 306 208 263 208 195 c 2
 208 62 l 2
EndSplineSet
EndChar

StartChar: j
Encoding: 106 106 10
Width: 316
VWidth: 0
Flags: W
HStem: -234 54<23.7833 89.926> 411 35<12.0015 125.712> 411 27<21.7944 123.035> 572 118<129.339 220.661>
VStem: 116 118<585.339 676.661> 141 92<-110.952 401.435>
LayerCount: 3
Fore
SplineSet
116 631 m 0x98
 116 664 142 690 175 690 c 0
 208 690 234 664 234 631 c 0
 234 598 208 572 175 572 c 0
 142 572 116 598 116 631 c 0x98
141 360 m 0xb4
 141 382 120 411 94 411 c 2
 22 411 l 2
 14 411 12 418 12 427 c 0
 12 438 12 446 20 446 c 0xd4
 58 446 114 438 170 438 c 0
 199 438 203 440 225 440 c 0
 232 440 233 433 233 429 c 0
 232 375 231 337 231 305 c 2
 230 -6 l 2
 230 -47 228 -85 204 -124 c 8
 162 -192 44 -234 31 -234 c 0
 23 -234 14 -223 16 -211 c 0
 18 -200 50 -189 66 -180 c 0
 103 -160 142 -122 142 -59 c 0
 142 80 141 218 141 360 c 0xb4
EndSplineSet
EndChar

StartChar: k
Encoding: 107 107 11
Width: 542
VWidth: 0
Flags: W
HStem: -3 29<11.0549 90.6504 198.404 268.963 302.009 354.174 471.241 527.991> 222 20<192.722 227.249> 408 30<382.375 480.59> 411 34<252.311 324.617 383.969 502.821> 670 34<16.0728 97.803>
VStem: 103 87<44.282 221.487 432.773 662.527>
DStem2: 300 259 247 206 0.601905 -0.798567<-17.1189 200.982>
LayerCount: 3
Fore
SplineSet
362 438 m 0xec
 417 438 452 445 482 445 c 0
 497 445 502 445 503 426 c 0
 504 411 496 412 482 411 c 0xdc
 462 410 449 408 427 408 c 0
 410 408 393 403 376 388 c 0
 342 358 321 324 301 295 c 0
 295 286 293 281 293 276 c 0
 293 271 294 267 300 259 c 0
 327 222 394 131 452 60 c 0
 473 35 486 22 520 22 c 0
 526 22 528 17 528 11 c 0
 528 3 525 -6 519 -6 c 0
 473 -6 450 2 404 2 c 0
 365 2 348 -3 311 -3 c 0
 305 -3 302 3 302 11 c 0
 302 19 305 26 311 26 c 0
 320 26 326 27 333 27 c 0
 349 28 357 39 357 50 c 0
 357 56 354 64 348 72 c 2
 247 206 l 2
 238 218 232 222 222 222 c 0
 198 222 190 215 190 201 c 2
 190 84 l 2
 190 42 193 36 224 30 c 0
 234 28 246 28 262 26 c 0
 267 25 269 17 269 10 c 0
 269 4 264 -2 259 -2 c 0
 210 -2 193 6 144 6 c 0
 94 6 50 -2 19 -2 c 0
 14 -2 11 6 11 13 c 0
 11 20 14 28 20 28 c 0
 33 29 41 29 54 30 c 0
 71 31 88 37 97 44 c 0
 104 50 103 57 103 69 c 2
 109 621 l 2
 109 637 109 653 98 663 c 0
 94 667 77 669 65 670 c 0
 53 671 42 672 26 672 c 0
 20 672 16 674 16 685 c 0
 16 694 20 704 27 704 c 0
 49 704 112 697 142 697 c 0
 162 697 171 698 189 698 c 0
 194 698 195 691 195 686 c 0
 193 525 186 273 186 252 c 0
 186 245 187 242 193 242 c 0
 224 242 241 262 253 276 c 0
 269 295 300 338 321 371 c 0
 325 378 327 390 325 395 c 0
 317 414 298 415 280 416 c 2
 264 417 l 2
 251 417 251 423 252 430 c 0
 253 438 252 445 264 444 c 0
 294 441 330 438 362 438 c 0xec
EndSplineSet
EndChar

StartChar: l
Encoding: 108 108 12
Width: 326
VWidth: 0
Flags: W
HStem: -7 37<15.0564 109.57 211.107 306.585> 670 39<16.2892 107.528>
VStem: 113 95<33.2014 662.715>
LayerCount: 3
Fore
SplineSet
208 201 m 2
 208 79 l 2
 208 35 216 29 257 27 c 1
 286 27 l 2
 300 27 307 24 307 5 c 0
 307 -1 300 -8 288 -8 c 0
 239 -8 203 6 154 6 c 0
 117 6 56 -7 26 -7 c 0
 18 -7 15 6 15 13 c 0
 15 20 18 30 27 30 c 2
 60 30 l 2
 87 30 113 33 113 58 c 2
 118 634 l 2
 118 646 117 657 108 663 c 0
 98 669 84 670 71 670 c 2
 26 670 l 2
 20 670 16 674 16 685 c 0
 16 694 20 709 27 709 c 0
 54 709 130 702 162 702 c 0
 179 702 197 703 212 703 c 0
 217 703 218 696 218 691 c 0
 218 675 214 603 213 552 c 0
 211 396 208 217 208 201 c 2
EndSplineSet
EndChar

StartChar: m
Encoding: 109 109 13
Width: 928
VWidth: 0
Flags: W
HStem: -8 33<32.1445 103.275> -4 40<370 418.467> -4 36<210.222 288.417 346.539 382 526.319 602.878 658.458 737.783 837.26 916.577> 406 41<21.006 115.73> 419 46<313.988 419.165 627.48 727.275>
VStem: 119 89<37.0822 332.563 343.953 406.25> 119 80<343 406.25> 430 86<42.944 321.784 350 405.398> 745 88<39.2506 402.507>
LayerCount: 3
Fore
SplineSet
879 31 m 0x0b80
 896 28 917 30 917 10 c 0
 917 -2 905 -5 887 -5 c 0
 851 -5 815 4 787 4 c 0
 750 4 692 -5 676 -5 c 0
 666 -5 658 2 658 10 c 0
 658 17 663 30 671 30 c 0
 723 32 745 44 745 70 c 2
 745 139 l 2
 745 199 744 277 744 346 c 0
 744 386 725 419 680 419 c 0
 606 419 516 334 516 247 c 0
 516 202 517 163 518 119 c 0
 519 58 518 35 560 28 c 0
 597 22 603 27 603 11 c 0
 603 0 599 -4 582 -4 c 0
 565 -4 507 3 475 3 c 0
 414 3 391 -4 365 -4 c 0
 355 -4 346 2 346 10 c 0
 346 22 358 30 370 32 c 2x2b80
 394 36 l 2
 410 38 428 62 428 83 c 0
 428 192 430 239 430 348 c 0
 430 384 425 419 368 419 c 0x4b80
 311 419 268 385 239 346 c 0
 213 312 208 296 208 240 c 2
 208 62 l 2
 208 34 229 29 249 27 c 0
 266 25 289 31 289 9 c 0
 289 -3 283 -6 265 -6 c 0
 244 -6 191 3 168 3 c 0
 121 3 68 -8 43 -8 c 0
 36 -8 32 3 32 11 c 0
 32 18 35 25 43 25 c 0
 95 27 118 44 118 70 c 0
 118 282 119 150 119 362 c 0
 119 384 109 406 107 406 c 2
 31 408 l 2
 23 408 21 418 21 427 c 0
 21 438 21 447 29 447 c 0x9580
 115 447 136 441 198 441 c 0
 201 441 206 435 206 431 c 0
 205 405 199 363 199 343 c 1
 234 406 317 463 404 463 c 0
 514 463 515 354 515 350 c 1
 515 350 597 465 712 465 c 0
 813 465 833 409 833 341 c 2
 833 75 l 2
 833 49 837 37 879 31 c 0x0b80
EndSplineSet
EndChar

StartChar: n
Encoding: 110 110 14
Width: 624
VWidth: 0
Flags: W
HStem: -5 38<17.0381 106.711 209.168 288.991 349.018 427.811 528.451 610> 414 41<12.008 109.292> 421 44<314.297 422.014>
VStem: 113 91<38.0883 319.265 336 412.926> 436 91<39.3669 407.03>
LayerCount: 3
Fore
SplineSet
596 29 m 2xb8
 603 29 610 27 610 20 c 2
 610 9 l 2
 610 -4 602 -6 584 -6 c 0
 549 -6 510 3 480 3 c 0
 431 3 392 -5 374 -5 c 0
 369 -5 365 -4 360 -4 c 0
 353 -3 349 -2 349 13 c 0
 349 30 355 33 376 33 c 0
 384 33 393 33 400 34 c 0
 415 36 436 52 436 70 c 2
 436 344 l 2
 436 390 419 421 374 421 c 0xb8
 294 421 204 321 204 255 c 2
 205 66 l 2
 205 36 238 34 259 32 c 0
 276 30 289 36 289 14 c 0
 289 2 283 -4 265 -4 c 0
 233 -4 212 3 152 3 c 0
 100 3 57 -5 50 -5 c 0
 43 -5 36 -5 28 -4 c 0
 22 -3 17 7 17 15 c 0
 17 22 19 33 26 33 c 2
 55 33 l 2
 88 33 112 34 112 72 c 0
 113 171 113 278 113 368 c 0
 113 390 107 414 84 414 c 2
 43 414 l 2
 18 414 12 425 12 434 c 0
 12 451 23 455 38 455 c 0xd8
 71 455 121 448 158 448 c 2
 187 448 l 2
 202 448 206 447 206 435 c 0
 206 415 201 336 201 336 c 1
 201 336 272 463 400 465 c 0
 458 465 528 449 528 368 c 2
 527 58 l 2
 527 39 558 29 562 29 c 2
 596 29 l 2xb8
EndSplineSet
EndChar

StartChar: o
Encoding: 111 111 15
Width: 492
VWidth: 0
Flags: W
HStem: -24 39<182.403 319.85> 426 35<187.864 310.138>
VStem: 23 109<115.953 319.198> 366 102<107.998 324.837>
LayerCount: 3
Fore
SplineSet
252 461 m 0
 381 461 468 346 468 220 c 0
 468 81 384 -24 252 -24 c 0
 119 -24 23 88 23 221 c 0
 23 349 125 461 252 461 c 0
250 426 m 0
 136 426 132 321 132 218 c 0
 132 104 139 15 254 15 c 0
 366 15 366 116 366 218 c 0
 366 317 359 426 250 426 c 0
EndSplineSet
EndChar

StartChar: p
Encoding: 112 112 16
Width: 581
VWidth: 0
Flags: W
HStem: -246 38<22.0058 113.356> -246 30<211.499 304.997> -238 27<210 291.721> -20 33<280.963 398.18> 426 38<24.0703 117.995 276.677 395.868> 426 31<39.7091 116.949>
VStem: 119 83<-172.347 75 90.041 347.423 373 425.576> 455 103<108.407 330.176>
LayerCount: 3
Fore
SplineSet
366 464 m 0x1b
 474 464 558 351 558 222 c 0
 558 60 453 -20 342 -20 c 0
 243 -20 203 75 203 75 c 1
 203 75 210 -93 210 -198 c 0
 210 -205 212 -210 228 -211 c 2x3b
 295 -216 l 2
 301 -216 305 -224 305 -231 c 0
 305 -238 301 -246 294 -246 c 0x53
 245 -246 221 -238 164 -238 c 0x33
 113 -238 90 -246 33 -246 c 0
 26 -246 22 -237 22 -227 c 0
 22 -218 30 -208 36 -208 c 0
 45 -208 56 -209 66 -209 c 0
 93 -209 116 -206 116 -180 c 0
 116 48 119 165 119 396 c 0
 119 415 112 424 98 426 c 0
 88 427 42 429 40 429 c 0
 30 430 24 440 24 446 c 0
 24 456 25 464 39 464 c 0x9b
 54 464 77 457 135 457 c 0x17
 158 457 191 458 201 458 c 0
 209 458 211 456 211 447 c 0
 211 426 207 406 207 384 c 2
 207 373 l 1
 207 373 234 464 366 464 c 0x1b
342 426 m 0
 228 426 202 316 202 219 c 0
 202 178 204 144 213 116 c 0
 237 41 296 13 340 13 c 0
 450 13 455 129 455 222 c 0
 455 312 435 426 342 426 c 0
EndSplineSet
EndChar

StartChar: q
Encoding: 113 113 17
Width: 538
VWidth: 0
Flags: W
HStem: -235 34<288.039 370.728 465.517 551.961> -227 27<299.322 370.562 465.676 551.149> -10 32<194.631 294.538> 426 36<190.763 309.72> 432 20G<398.5 452>
VStem: 27 103<120.17 333.823> 373 89<-197.82 76> 381 81<105.772 342.81 376 451.646>
LayerCount: 3
Fore
SplineSet
246 462 m 0xb6
 340 462 380 376 380 376 c 1
 386 426 l 2xb6
 388 442 389 452 408 452 c 2
 444 452 l 2x2e
 460 452 462 447 462 426 c 2x35
 462 -160 l 2
 462 -178 463 -198 486 -200 c 0x76
 496 -201 524 -203 535 -204 c 0
 546 -205 552 -209 552 -219 c 0
 552 -234 546 -235 540 -235 c 2
 538 -235 l 2xa6
 504 -235 452 -227 416 -227 c 0x66
 367 -227 305 -235 299 -235 c 0
 292 -235 288 -224 288 -217 c 0
 288 -212 294 -202 303 -201 c 0
 329 -198 373 -206 373 -176 c 0
 373 -72 376 76 376 76 c 1
 376 76 322 -10 230 -10 c 0
 106 -10 27 99 27 232 c 0
 27 363 122 462 246 462 c 0xb6
250 426 m 0
 148 426 130 318 130 228 c 0
 130 136 149 22 246 22 c 0
 342 22 381 121 381 219 c 0x35
 381 284 366 353 328 393 c 0
 308 413 282 426 250 426 c 0
EndSplineSet
EndChar

StartChar: r
Encoding: 114 114 18
Width: 477
VWidth: 0
Flags: W
HStem: -9 39<19.058 117.333 224.607 317.991> 419 38<21.5848 116.268> 434 38<314.698 400.5>
VStem: 124 94<47.2827 324.887 346 411.636> 355 103<352.533 433.465>
LayerCount: 3
Fore
SplineSet
379 472 m 0xb8
 422 472 458 445 458 404 c 0
 458 370 445 343 400 343 c 0
 375 343 355 369 355 390 c 0
 355 404 356 416 356 423 c 0
 356 431 355 434 350 434 c 0xb8
 346 434 339 432 328 426 c 0
 290 407 254 364 233 310 c 0
 226 291 219 267 219 252 c 0
 219 189 218 133 218 71 c 0
 218 61 219 53 224 47 c 0
 237 32 247 28 262 28 c 2
 308 30 l 2
 315 30 318 19 318 10 c 0
 318 1 315 -8 308 -8 c 0
 254 -8 224 4 174 4 c 0
 128 4 88 -9 32 -9 c 0
 23 -9 19 2 19 12 c 0
 19 22 28 30 33 30 c 0
 53 30 66 30 90 31 c 0
 112 32 124 50 124 72 c 0
 124 188 123 264 123 380 c 0
 123 406 97 418 74 419 c 2
 36 421 l 2
 26 422 21 433 21 444 c 0
 21 451 28 458 35 458 c 2
 89 457 l 2xd8
 122 457 166 452 198 452 c 0
 215 452 219 452 219 447 c 0
 219 444 217 439 217 430 c 2
 213 346 l 1
 213 346 281 472 379 472 c 0xb8
EndSplineSet
EndChar

StartChar: s
Encoding: 115 115 19
Width: 376
VWidth: 0
Flags: HWO
LayerCount: 3
Fore
SplineSet
37 315 m 0
 37 400 113 462 200 462 c 0
 241 462 270 456 312 435 c 0
 321 431 323 423 323 410 c 0
 323 362 324 350 324 342 c 0
 324 335 317 331 311 331 c 0
 306 331 302 333 300 338 c 0
 286 374 250 432 190 432 c 0
 151 432 96 402 96 346 c 0
 96 239 349 303 349 125 c 0
 349 41 266 -18 191 -18 c 0
 131 -18 91 0 42 21 c 0
 36 24 30 28 30 35 c 0
 30 43 31 50 31 58 c 0
 31 79 28 99 28 121 c 0
 28 128 35 131 42 131 c 0
 58 131 60 116 65 105 c 0
 94 40 134 15 195 15 c 0
 244 15 291 52 291 103 c 0
 291 214 37 137 37 315 c 0
EndSplineSet
EndChar

StartChar: t
Encoding: 116 116 20
Width: 378
VWidth: 0
Flags: W
HStem: -17 42<222.933 305.492> 399 45<18.5655 121.77 214.037 328.988>
VStem: 115 93<37.5499 346.576> 121 99<454.056 581.874> 122 92<132.323 398.915 445.422 572.929> 319 37<41.4244 102.991>
LayerCount: 3
Fore
SplineSet
356 84 m 0xe4
 356 31 315 -17 249 -17 c 0
 182 -17 115 17 115 90 c 0xe4
 115 113 120 320 124 387 c 0
 125 401 128 402 109 402 c 0
 50 402 38 401 29 401 c 0
 18 401 18 427 18 431 c 0
 18 446 28 448 38 448 c 2
 111 445 l 2
 123 445 122 448 122 463 c 2xcc
 121 557 l 2
 121 579 133 580 165 588 c 0
 184 592 198 595 207 595 c 0
 217 595 220 590 220 575 c 0xd4
 220 531 214 475 214 453 c 0xcc
 214 444 217 444 236 444 c 2
 319 444 l 2
 325 444 329 437 329 421 c 0
 329 404 319 398 314 398 c 2
 230 399 l 2
 214 399 213 401 213 385 c 0
 213 338 208 204 208 116 c 0
 208 75 212 25 266 25 c 0
 293 25 314 49 319 75 c 0
 322 90 322 103 338 103 c 0
 348 103 356 92 356 84 c 0xe4
EndSplineSet
EndChar

StartChar: u
Encoding: 117 117 21
Width: 638
VWidth: 0
Flags: HW
HStem: -17 47<215.594 325.702 528.019 616.846> 414 44<18.0102 99.8132 332.243 429.949>
VStem: 110 94<41.3011 403.197> 433 96<26.9288 78.8182 123.721 414> 444 84<43.5 117>
LayerCount: 3
Fore
SplineSet
257 30 m 0
 326 30 433 105 433 177 c 2
 433 364 l 2
 433 384 431 414 414 414 c 2
 347 414 l 2
 339 414 332 430 332 439 c 0
 332 447 337 458 345 458 c 0
 379 458 428 455 453 455 c 0
 471 455 500 457 516 457 c 0
 522 457 532 450 532 435 c 0
 532 393 529 306 529 227 c 0
 529 170 528 102 528 48 c 0
 528 27 554 25 577 25 c 2
 601 25 l 2
 614 25 617 18 617 10 c 0
 617 -2 615 -16 601 -16 c 0
 570 -16 547 -10 512 -10 c 0
 495 -10 466 -11 449 -11 c 0
 438 -11 435 -7 435 1 c 0
 435 4 436 8 436 12 c 2
 443 117 l 1
 443 117 377 -16 232 -16 c 0
 120 -16 110 34 110 106 c 2
 110 358 l 2
 110 375 109 390 103 404 c 0
 99 412 96 414 84 414 c 2
 55 415 l 2
 32 416 18 415 18 436 c 0
 18 453 30 460 36 460 c 0
 45 460 113 454 191 454 c 0
 208 454 208 445 208 432 c 0
 207 347 204 261 204 176 c 0
 204 151 204 126 205 101 c 0
 207 38 230 30 257 30 c 0
EndSplineSet
EndChar

StartChar: v
Encoding: 118 118 22
Width: 548
VWidth: 0
Flags: HW
HStem: 185 88<426.44 501.56>
VStem: 420 88<191.44 266.56>
LayerCount: 3
Fore
SplineSet
10 434 m 0
 10 449 11 452 26 452 c 0
 42 452 62 446 140 446 c 0
 161 446 219 449 239 449 c 2
 248 449 l 2
 258 449 260 448 260 433 c 0
 260 424 261 420 252 419 c 0
 225 415 192 413 192 385 c 0
 192 380 193 375 195 369 c 2
 285 150 l 2
 292 133 296 122 300 122 c 0
 304 122 311 132 318 150 c 2
 394 336 l 2
 399 349 404 364 404 381 c 0
 404 399 398 414 374 414 c 2
 349 414 l 2
 341 414 340 419 338 424 c 0
 337 427 335 431 335 434 c 0
 335 444 339 447 351 447 c 0
 357 447 394 444 456 444 c 0
 472 444 512 447 530 447 c 0
 535 447 537 445 537 435 c 0
 537 416 527 415 515 414 c 0
 480 410 463 408 446 368 c 2
 298 13 l 2
 289 -9 288 -20 273 -20 c 0
 259 -20 257 -4 249 14 c 2
 95 377 l 2
 88 395 75 408 75 408 c 1
 16 416 l 1
 16 416 10 425 10 434 c 0
EndSplineSet
EndChar

StartChar: w
Encoding: 119 119 23
Width: 852
VWidth: 0
Flags: HW
HStem: -14 135<266 295 598 632> 434 20G<30.5 50.5 235 248.5 330 341.5 559.5 573 655 664 823 834.5>
DStem2: 195 369 98 367 0.393291 -0.919414<-25.5155 266.886> 307 146 294 15 0.342403 0.939553<-27.9026 257.743> 519 379 438 358 0.379261 -0.92529<-20.6021 279.819> 644 151 677 150 0.346195 0.938163<-31.981 240.403>
LayerCount: 3
Fore
SplineSet
16 437 m 0
 16 452 23 454 38 454 c 0
 63 454 106 445 140 445 c 0
 164 445 226 451 244 451 c 0
 253 451 260 450 260 433 c 0
 260 424 256 419 247 418 c 0
 220 414 188 422 188 394 c 0
 188 389 193 375 195 369 c 2
 282 150 l 2
 288 134 291 121 294 121 c 0
 296 121 300 128 307 146 c 2
 382 350 l 2
 387 363 397 385 397 399 c 0
 397 417 382 420 358 420 c 2
 338 420 l 2
 330 420 322 424 322 430 c 2
 322 439 l 2
 322 449 324 452 336 452 c 0
 347 452 398 446 448 446 c 0
 510 446 551 454 568 454 c 0
 578 454 586 449 586 438 c 0
 586 425 581 420 566 418 c 0
 540 415 513 418 513 399 c 0
 513 395 517 384 519 379 c 2
 615 150 l 2
 622 133 626 122 630 122 c 0
 634 122 638 133 644 151 c 2
 709 336 l 2
 714 349 720 363 720 380 c 0
 720 390 718 413 694 416 c 2
 658 420 l 2
 649 421 645 426 645 434 c 0
 645 444 649 456 661 456 c 0
 667 456 690 448 752 448 c 0
 792 448 814 456 832 456 c 0
 837 456 841 447 841 437 c 0
 841 418 837 420 825 418 c 0
 794 414 772 409 757 368 c 2
 677 150 l 2
 663 113 648 82 626 13 c 0
 619 -8 618 -12 605 -12 c 0
 591 -12 586 -4 579 14 c 2
 438 358 l 2
 433 370 431 376 429 376 c 0
 427 376 423 370 419 358 c 2
 294 15 l 2
 286 -7 286 -14 273 -14 c 0
 259 -14 257 -4 249 14 c 2
 98 367 l 2
 79 413 63 413 33 421 c 0
 25 423 16 423 16 437 c 0
EndSplineSet
EndChar

StartChar: x
Encoding: 120 120 24
Width: 550
VWidth: 0
Flags: HW
HStem: -6 38<8.01953 84.5999 268.023 340.311> 2 30<22.5959 78.8121 142.894 204.853 461.375 525.994> 416 39<7.008 84.668 200.206 255.942> 416 29<30.6731 81.025 200.005 243.39 343.009 384.987 440.677 514.718>
DStem2: 112 80 150 70 0.661863 0.749624<-0.95792 167.329 267.08 420.899> 279 286 217 230 0.598084 -0.801433<-142.429 6.9597 63.2115 221.892>
LayerCount: 3
Fore
SplineSet
107 2 m 0x50
 92 2 34 -6 22 -6 c 0
 10 -6 8 0 8 15 c 0
 8 28 8 31 18 32 c 0
 25 33 38 34 50 37 c 0
 84 44 87 51 112 80 c 2
 219 205 l 2
 228 216 226 219 217 230 c 2
 108 370 l 2
 71 417 77 410 26 416 c 0
 18 417 7 421 7 435 c 0
 7 450 15 455 30 455 c 0xa0
 44 455 81 445 147 445 c 0
 218 445 231 449 244 449 c 0
 251 449 256 448 256 433 c 0
 256 424 254 417 245 417 c 2
 227 417 l 2
 207 417 200 413 200 405 c 0
 200 400 203 393 208 385 c 2
 279 286 l 2
 286 276 285 275 293 285 c 0
 319 315 385 391 385 401 c 0
 385 406 383 415 378 416 c 2
 358 418 l 2
 349 419 343 422 343 430 c 0
 343 440 346 446 358 446 c 0
 364 446 412 442 434 442 c 0
 473 442 496 447 506 447 c 0
 511 447 515 445 515 435 c 0
 515 416 504 418 492 416 c 0
 461 412 446 413 416 379 c 2
 321 269 l 2
 313 260 308 256 308 252 c 0
 308 248 312 244 319 234 c 2
 458 50 l 2
 473 31 485 33 506 30 c 0
 523 28 526 27 526 17 c 0
 526 0 518 -1 507 -1 c 0
 481 -1 448 6 397 6 c 0
 346 6 290 -5 282 -5 c 0
 272 -5 268 0 268 14 c 0
 268 28 276 28 292 30 c 2
 324 33 l 2
 335 34 342 47 342 56 c 0
 342 59 339 67 338 68 c 2
 258 178 l 2
 250 190 248 191 239 180 c 2
 150 70 l 2
 143 61 142 57 142 52 c 0
 142 34 168 34 190 32 c 0
 201 31 205 24 205 14 c 0
 205 -2 197 -2 188 -2 c 0
 166 -2 122 2 107 2 c 0x50
EndSplineSet
EndChar

StartChar: y
Encoding: 121 121 25
Width: 610
VWidth: 0
Flags: W
HStem: -248 31<104.319 175.502> 414 39<380.155 446.938 514.263 587.948> 417 28<26.7691 89.1465 219.494 267.653> 421 33<20.0117 86.4772 220.828 289.922>
VStem: 21 82<-215.713 -140.382>
DStem2: 274 -36 332 9 0.412028 0.911171<-131.398 26.7735 138.789 444.631>
LayerCount: 3
Fore
SplineSet
268 30 m 2xa8
 166 254 l 2
 146 298 131 341 104 384 c 0
 90 406 79 415 64 417 c 0xa8
 50 419 40 419 30 421 c 0
 21 423 20 425 20 433 c 2
 20 438 l 2
 20 453 20 454 26 454 c 0x98
 42 454 84 445 162 445 c 0xa8
 228 445 261 452 268 452 c 0
 278 452 290 451 290 436 c 0
 290 427 283 422 274 421 c 0x98
 236 417 213 410 213 384 c 0
 213 379 214 373 217 367 c 2
 317 119 l 2
 325 101 328 90 332 90 c 0
 336 90 340 100 348 118 c 2
 449 351 l 2
 452 359 454 362 454 371 c 0
 454 391 444 410 421 414 c 0
 404 417 380 418 380 428 c 0
 380 444 382 453 398 453 c 0xc8
 404 453 424 443 486 443 c 0
 502 443 538 452 577 452 c 0
 584 452 588 447 588 435 c 0
 588 422 580 421 570 417 c 0
 548 409 514 411 496 370 c 2
 332 9 l 2
 312 -35 249 -248 126 -248 c 0
 70 -248 21 -219 21 -174 c 0
 21 -152 36 -136 62 -136 c 0
 101 -136 103 -175 103 -199 c 0
 103 -213 123 -217 135 -217 c 0
 155 -217 174 -206 188 -192 c 0
 230 -151 260 -80 274 -36 c 0
 278 -24 280 -16 280 -9 c 0
 280 4 276 13 268 30 c 2xa8
EndSplineSet
EndChar

StartChar: z
Encoding: 122 122 26
Width: 458
VWidth: 0
Flags: HW
HStem: 0 31<140 344.089> 410 30<107.607 293.996>
VStem: 31 34<302.082 360.685> 395 31<83.4944 130.999>
DStem2: 31 29 140 31 0.570754 0.821121<63.8544 457.05>
LayerCount: 3
Fore
SplineSet
45 302 m 0
 33 302 31 304 31 309 c 0
 31 318 38 373 40 422 c 0
 41 438 41 438 59 438 c 2
 407 440 l 2
 413 440 415 437 415 433 c 0
 415 429 413 423 409 418 c 2
 140 31 l 1
 276 31 l 2
 368 31 382 82 395 123 c 0
 398 131 397 131 410 131 c 0
 425 131 426 130 426 122 c 0
 426 106 423 66 423 16 c 0
 423 2 418 0 404 0 c 2
 35 0 l 2
 26 0 24 5 24 10 c 0
 24 20 29 26 31 29 c 0
 123 146 206 272 283 383 c 0
 289 392 294 399 294 403 c 0
 294 408 288 410 273 410 c 2
 148 410 l 2
 103 410 81 369 65 322 c 0
 60 309 64 302 45 302 c 0
EndSplineSet
EndChar

StartChar: zero
Encoding: 48 48 53
Width: 176
VWidth: 0
Flags: W
HStem: 185 88<50.4399 125.56>
VStem: 44 88<191.44 266.56>
LayerCount: 3
Fore
SplineSet
44 229 m 0
 44 253 64 273 88 273 c 0
 112 273 132 253 132 229 c 0
 132 205 112 185 88 185 c 0
 64 185 44 205 44 229 c 0
EndSplineSet
EndChar

StartChar: one
Encoding: 49 49 54
Width: 176
VWidth: 0
Flags: W
HStem: 185 88<50.4399 125.56>
VStem: 44 88<191.44 266.56>
LayerCount: 3
Fore
SplineSet
44 229 m 0
 44 253 64 273 88 273 c 0
 112 273 132 253 132 229 c 0
 132 205 112 185 88 185 c 0
 64 185 44 205 44 229 c 0
EndSplineSet
EndChar

StartChar: two
Encoding: 50 50 55
Width: 176
VWidth: 0
Flags: W
HStem: 185 88<50.4399 125.56>
VStem: 44 88<191.44 266.56>
LayerCount: 3
Fore
SplineSet
44 229 m 0
 44 253 64 273 88 273 c 0
 112 273 132 253 132 229 c 0
 132 205 112 185 88 185 c 0
 64 185 44 205 44 229 c 0
EndSplineSet
EndChar

StartChar: three
Encoding: 51 51 56
Width: 176
VWidth: 0
Flags: W
HStem: 185 88<50.4399 125.56>
VStem: 44 88<191.44 266.56>
LayerCount: 3
Fore
SplineSet
44 229 m 0
 44 253 64 273 88 273 c 0
 112 273 132 253 132 229 c 0
 132 205 112 185 88 185 c 0
 64 185 44 205 44 229 c 0
EndSplineSet
EndChar

StartChar: four
Encoding: 52 52 57
Width: 176
VWidth: 0
Flags: W
HStem: 185 88<50.4399 125.56>
VStem: 44 88<191.44 266.56>
LayerCount: 3
Fore
SplineSet
44 229 m 0
 44 253 64 273 88 273 c 0
 112 273 132 253 132 229 c 0
 132 205 112 185 88 185 c 0
 64 185 44 205 44 229 c 0
EndSplineSet
EndChar

StartChar: five
Encoding: 53 53 58
Width: 176
VWidth: 0
Flags: W
HStem: 185 88<50.4399 125.56>
VStem: 44 88<191.44 266.56>
LayerCount: 3
Fore
SplineSet
44 229 m 0
 44 253 64 273 88 273 c 0
 112 273 132 253 132 229 c 0
 132 205 112 185 88 185 c 0
 64 185 44 205 44 229 c 0
EndSplineSet
EndChar

StartChar: six
Encoding: 54 54 59
Width: 176
VWidth: 0
Flags: W
HStem: 185 88<50.4399 125.56>
VStem: 44 88<191.44 266.56>
LayerCount: 3
Fore
SplineSet
44 229 m 0
 44 253 64 273 88 273 c 0
 112 273 132 253 132 229 c 0
 132 205 112 185 88 185 c 0
 64 185 44 205 44 229 c 0
EndSplineSet
EndChar

StartChar: seven
Encoding: 55 55 60
Width: 176
VWidth: 0
Flags: W
HStem: 185 88<50.4399 125.56>
VStem: 44 88<191.44 266.56>
LayerCount: 3
Fore
SplineSet
44 229 m 0
 44 253 64 273 88 273 c 0
 112 273 132 253 132 229 c 0
 132 205 112 185 88 185 c 0
 64 185 44 205 44 229 c 0
EndSplineSet
EndChar

StartChar: eight
Encoding: 56 56 61
Width: 176
VWidth: 0
Flags: W
HStem: 185 88<50.4399 125.56>
VStem: 44 88<191.44 266.56>
LayerCount: 3
Fore
SplineSet
44 229 m 0
 44 253 64 273 88 273 c 0
 112 273 132 253 132 229 c 0
 132 205 112 185 88 185 c 0
 64 185 44 205 44 229 c 0
EndSplineSet
EndChar

StartChar: nine
Encoding: 57 57 62
Width: 176
VWidth: 0
Flags: W
HStem: 185 88<50.4399 125.56>
VStem: 44 88<191.44 266.56>
LayerCount: 3
Fore
SplineSet
44 229 m 0
 44 253 64 273 88 273 c 0
 112 273 132 253 132 229 c 0
 132 205 112 185 88 185 c 0
 64 185 44 205 44 229 c 0
EndSplineSet
EndChar
